<svg xmlns="http://www.w3.org/2000/svg" xmlns:xlink="http://www.w3.org/1999/xlink" width="300" height="267.03999999999996" viewBox="662.48 -524.52 311.03999999999996 267.03999999999996" preserveAspectRatio="xMinYMin meet"><g transform="matrix(1,0,0,-1,0,-782.0)"><path fill-rule="evenodd" fill="#66cc99" stroke="#555555" stroke-width="2.0736" opacity="0.6" d="M 674.0,-481.0 L 709.0,-513.0 L 761.0,-484.0 L 771.0,-484.0 L 785.0,-477.0 L 822.0,-442.0 L 829.0,-445.0 L 841.0,-438.0 L 849.0,-422.0 L 868.0,-406.0 L 883.0,-373.0 L 922.0,-343.0 L 944.0,-321.0 L 962.0,-293.0 L 960.0,-278.0 L 916.0,-269.0 L 899.0,-277.0 L 892.0,-283.0 L 858.0,-335.0 L 824.0,-349.0 L 773.0,-378.0 L 746.0,-394.0 L 736.0,-391.0 L 724.0,-401.0 L 707.0,-437.0 L 674.0,-481.0 z" /></g></svg>